<?xml version="1.0" encoding="utf-8"?>
<!-- Generator: Adobe Illustrator 16.0.0, SVG Export Plug-In . SVG Version: 6.00 Build 0)  -->
<!DOCTYPE svg PUBLIC "-//W3C//DTD SVG 1.1//EN" "http://www.w3.org/Graphics/SVG/1.1/DTD/svg11.dtd">
<svg version="1.1" xmlns="http://www.w3.org/2000/svg" xmlns:xlink="http://www.w3.org/1999/xlink" x="0px" y="0px" width="3000px"
	 height="2000px" viewBox="0 0 3000 2000" enable-background="new 0 0 3000 2000" xml:space="preserve">
<g id="Layer_1">
	<g>
		<rect x="1102.604" y="867.858" fill="#020202" stroke="#020202" stroke-miterlimit="10" width="94.784" height="408.753"/>
		<rect x="1445.945" y="867.858" fill="#020202" stroke="#020202" stroke-miterlimit="10" width="94.783" height="408.753"/>
		<rect x="1476.527" y="723.388" fill="#020202" stroke="#020202" stroke-miterlimit="10" width="94.784" height="553.224"/>
		<rect x="1819.868" y="723.388" fill="#020202" stroke="#020202" stroke-miterlimit="10" width="94.783" height="553.224"/>
		<path fill="#020202" stroke="#020202" stroke-miterlimit="10" d="M2257.773,724.315v553.224h-94.784V731.683
			c3.541,22.838,23.29,40.307,47.108,40.307C2236.428,771.99,2257.773,750.646,2257.773,724.315z"/>
		<path fill="#020202" stroke="#020202" stroke-miterlimit="10" d="M1321.661,649.718c-120.983,0-219.057,98.074-219.057,219.059
			v0.009h94.784v-0.009c0-68.63,55.644-124.273,124.272-124.273c68.639,0,124.275,55.644,124.275,124.273v0.009h94.792v-0.009
			C1540.729,747.792,1442.646,649.718,1321.661,649.718z"/>
		<path fill="#020202" stroke="#020202" stroke-miterlimit="10" d="M1695.586,505.248c-120.982,0-219.059,98.072-219.059,219.057
			v0.009h94.784v-0.009c0-68.628,55.644-124.273,124.274-124.273c68.637,0,124.273,55.646,124.273,124.273v0.009h94.792v-0.009
			C1914.651,603.32,1816.568,505.248,1695.586,505.248z"/>
		<path fill="#020202" stroke="#020202" stroke-miterlimit="10" d="M2257.777,1275.695v-0.01h-94.794v0.01
			c0,68.628-55.635,124.273-124.273,124.273c-68.628,0-124.272-55.646-124.272-124.273v-0.01h-94.784v0.01
			c0,120.984,98.072,219.057,219.057,219.057S2257.777,1396.68,2257.777,1275.695z"/>
		<circle fill="#020202" stroke="#020202" stroke-miterlimit="10" cx="2209.455" cy="685.565" r="46.958"/>
		<path fill="#020202" stroke="#020202" stroke-miterlimit="10" d="M1103.615,847.729"/>
	</g>
	
		<line fill="none" stroke="#020202" stroke-width="34" stroke-miterlimit="10" x1="1024.592" y1="1363.994" x2="1786.941" y2="1363.994"/>
</g>
<g id="Layer_2">
</g>
<g id="Layer_3">
</g>
</svg>
